<?xml version="1.0" standalone="no"?>
<!DOCTYPE svg PUBLIC "-//W3C//DTD SVG 20010904//EN"
 "http://www.w3.org/TR/2001/REC-SVG-20010904/DTD/svg10.dtd">
<svg version="1.0" xmlns="http://www.w3.org/2000/svg"
 width="32.000000pt" height="32.000000pt" viewBox="0 0 32.000000 32.000000"
 preserveAspectRatio="xMidYMid meet">

<g transform="translate(0.000000,32.000000) scale(0.100000,-0.100000)"
fill="#000000" stroke="none">
<path d="M106 276 c-21 -8 -43 -21 -48 -28 -16 -25 -29 -91 -23 -117 15 -64
27 -79 79 -101 l52 -21 51 22 c45 18 54 27 72 72 l22 51 -21 52 c-14 33 -30
55 -46 63 -42 19 -97 22 -138 7z m140 -21 c11 -7 28 -33 38 -58 16 -42 16 -46
-3 -91 -17 -39 -28 -50 -67 -67 -45 -19 -49 -19 -91 -3 -57 22 -77 53 -77 119
0 63 22 101 67 114 38 12 104 5 133 -14z"/>
<path d="M159 248 c0 -7 -21 -30 -45 -50 l-45 -38 35 0 36 0 0 -50 c0 -47 2
-50 25 -50 23 0 25 3 25 50 0 48 1 49 35 56 40 7 45 19 12 28 -12 3 -30 19
-40 36 -19 31 -37 39 -38 18z"/>
</g>
</svg>
